<svg id="SvgjsSvg1001" width="200" height="200" xmlns="http://www.w3.org/2000/svg" version="1.1" xmlns:xlink="http://www.w3.org/1999/xlink" xmlns:svgjs="http://svgjs.com/svgjs"><defs id="SvgjsDefs1002"></defs><rect id="SvgjsRect1008" width="200" height="100" fill="#ffffff"></rect><g id="SvgjsG1013" transform="matrix(1,0,0,1,189.3300018310547,128.67999267578125)"><path id="SvgjsPath1014" d="M15.58799990081787 0.7200006866455091L22.60799990081787 0.7200006866455091L22.60799990081787 26.280000686645508L15.58799990081787 26.280000686645508L15.58799990081787 16.27200068664551L7.01999990081787 16.27200068664551L7.01999990081787 26.280000686645508L-9.918212873216703e-8 26.280000686645508L-9.918212873216703e-8 0.7200006866455091L7.01999990081787 0.7200006866455091L7.01999990081787 10.152000686645508L15.58799990081787 10.152000686645508L15.58799990081787 0.7200006866455091ZM32.25599990081787 26.640000686645507Q29.37599990081787 26.640000686645507 27.86399990081787 24.89400068664551Q26.35199990081787 23.148000686645506 26.35199990081787 19.800000686645507L26.35199990081787 7.344000686645508L33.19199990081787 7.344000686645508L33.19199990081787 18.25200068664551Q33.19199990081787 19.512000686645507 33.74999990081787 20.196000686645508Q34.30799990081787 20.88000068664551 35.27999990081787 20.88000068664551Q36.07199990081787 20.88000068664551 36.89999990081787 20.52000068664551Q37.72799990081787 20.160000686645507 38.55599990081787 18.936000686645507L38.55599990081787 7.344000686645508L45.39599990081787 7.344000686645508L45.39599990081787 18.72000068664551Q45.39599990081787 19.692000686645507 45.683999900817874 20.070000686645507Q45.97199990081787 20.448000686645507 46.69199990081787 20.52000068664551L46.69199990081787 26.280000686645508Q44.92799990081787 26.640000686645507 43.811999900817874 26.640000686645507Q40.31999990081787 26.640000686645507 39.77999990081787 24.012000686645507L39.63599990081787 23.32800068664551Q38.30399990081787 25.09200068664551 36.46799990081787 25.866000686645506Q34.631999900817874 26.640000686645507 32.25599990081787 26.640000686645507ZM49.35599990081787 21.168000686645506L49.35599990081787 6.866455066756316e-7L56.195999900817874 6.866455066756316e-7L56.195999900817874 18.756000686645507Q56.195999900817874 20.916000686645507 57.95999990081787 20.916000686645507Q58.39199990081787 20.916000686645507 58.89599990081787 20.77200068664551Q59.39999990081787 20.628000686645507 59.83199990081787 20.376000686645508L60.695999900817874 25.416000686645507Q59.47199990081787 25.992000686645508 57.94199990081787 26.31600068664551Q56.41199990081787 26.640000686645507 55.04399990081787 26.640000686645507Q52.30799990081787 26.640000686645507 50.83199990081787 25.236000686645507Q49.35599990081787 23.832000686645507 49.35599990081787 21.168000686645506ZM67.85999990081787 26.640000686645507Q66.45599990081787 26.640000686645507 65.23199990081787 26.172000686645507Q64.00799990081786 25.704000686645507 63.125999900817874 24.89400068664551Q62.24399990081787 24.084000686645506 61.73999990081787 22.968000686645507Q61.23599990081787 21.852000686645507 61.23599990081787 20.556000686645508Q61.23599990081787 19.116000686645506 61.84799990081787 17.928000686645507Q62.45999990081788 16.74000068664551 63.539999900817875 15.876000686645508Q64.61999990081787 15.012000686645507 66.11399990081787 14.544000686645507Q67.60799990081787 14.076000686645507 69.40799990081787 14.076000686645507Q71.71199990081787 14.076000686645507 73.22399990081787 14.796000686645508L73.22399990081787 14.220000686645507Q73.22399990081787 12.888000686645508 72.44999990081787 12.240000686645509Q71.67599990081787 11.592000686645507 69.94799990081788 11.592000686645507Q68.32799990081787 11.592000686645507 66.95999990081788 12.114000686645507Q65.59199990081787 12.636000686645508 64.07999990081787 13.644000686645509L62.09999990081788 9.396000686645507Q65.84399990081788 6.984000686645508 70.63199990081787 6.984000686645508Q75.16799990081788 6.984000686645508 77.61599990081787 9.000000686645507Q80.06399990081788 11.016000686645508 80.06399990081788 15.048000686645508L80.06399990081788 18.72000068664551Q80.06399990081788 19.692000686645507 80.35199990081787 20.070000686645507Q80.63999990081787 20.448000686645507 81.35999990081787 20.52000068664551L81.35999990081787 26.280000686645508Q80.53199990081787 26.460000686645508 79.79399990081787 26.550000686645507Q79.05599990081787 26.640000686645507 78.47999990081787 26.640000686645507Q76.64399990081787 26.640000686645507 75.68999990081787 25.974000686645507Q74.73599990081787 25.308000686645507 74.44799990081788 24.012000686645507L74.30399990081787 23.32800068664551Q73.04399990081787 24.948000686645507 71.38799990081787 25.794000686645507Q69.73199990081787 26.640000686645507 67.85999990081787 26.640000686645507ZM69.91199990081788 21.744000686645506Q70.52399990081787 21.744000686645506 71.17199990081787 21.546000686645506Q71.81999990081788 21.348000686645506 72.32399990081787 21.024000686645508Q72.71999990081787 20.736000686645507 72.97199990081788 20.39400068664551Q73.22399990081787 20.052000686645506 73.22399990081787 19.692000686645507L73.22399990081787 18.288000686645507Q72.61199990081788 18.07200068664551 71.89199990081786 17.928000686645507Q71.17199990081787 17.784000686645506 70.59599990081787 17.784000686645506Q69.33599990081787 17.784000686645506 68.50799990081786 18.396000686645507Q67.67999990081788 19.00800068664551 67.67999990081788 19.94400068664551Q67.67999990081788 20.736000686645507 68.30999990081787 21.24000068664551Q68.93999990081787 21.744000686645506 69.91199990081788 21.744000686645506ZM82.79999990081787 16.812000686645508Q82.79999990081787 14.868000686645507 83.48399990081788 13.086000686645507Q84.16799990081788 11.304000686645507 85.48199990081787 9.954000686645507Q86.79599990081788 8.60400068664551 88.73999990081788 7.794000686645507Q90.68399990081787 6.984000686645508 93.20399990081788 6.984000686645508Q96.65999990081787 6.984000686645508 98.98199990081787 8.424000686645506Q101.30399990081787 9.864000686645507 102.45599990081787 12.132000686645508L95.79599990081788 14.148000686645508Q94.82399990081787 12.744000686645508 93.16799990081788 12.744000686645508Q91.76399990081786 12.744000686645508 90.79199990081787 13.806000686645508Q89.81999990081788 14.868000686645507 89.81999990081788 16.812000686645508Q89.81999990081788 18.756000686645507 90.79199990081787 19.818000686645508Q91.76399990081786 20.88000068664551 93.16799990081788 20.88000068664551Q94.82399990081787 20.88000068664551 95.79599990081788 19.476000686645506L102.45599990081787 21.492000686645508Q101.30399990081787 23.76000068664551 98.98199990081787 25.20000068664551Q96.65999990081787 26.640000686645507 93.20399990081788 26.640000686645507Q90.68399990081787 26.640000686645507 88.73999990081788 25.83000068664551Q86.79599990081788 25.020000686645506 85.48199990081787 23.67000068664551Q84.16799990081788 22.320000686645507 83.48399990081788 20.538000686645507Q82.79999990081787 18.756000686645507 82.79999990081787 16.812000686645508ZM113.75999990081787 26.640000686645507Q111.20399990081788 26.640000686645507 109.27799990081787 25.83000068664551Q107.35199990081787 25.020000686645506 106.03799990081787 23.67000068664551Q104.72399990081787 22.320000686645507 104.05799990081788 20.538000686645507Q103.39199990081786 18.756000686645507 103.39199990081786 16.812000686645508Q103.39199990081786 14.868000686645507 104.05799990081788 13.086000686645507Q104.72399990081787 11.304000686645507 106.03799990081787 9.954000686645507Q107.35199990081787 8.60400068664551 109.27799990081787 7.794000686645507Q111.20399990081788 6.984000686645508 113.75999990081787 6.984000686645508Q116.27999990081787 6.984000686645508 118.22399990081787 7.794000686645507Q120.16799990081788 8.60400068664551 121.48199990081787 9.954000686645507Q122.79599990081788 11.304000686645507 123.46199990081787 13.086000686645507Q124.12799990081787 14.868000686645507 124.12799990081787 16.812000686645508Q124.12799990081787 18.756000686645507 123.46199990081787 20.538000686645507Q122.79599990081788 22.320000686645507 121.48199990081787 23.67000068664551Q120.16799990081788 25.020000686645506 118.22399990081787 25.83000068664551Q116.27999990081787 26.640000686645507 113.75999990081787 26.640000686645507ZM110.41199990081788 16.812000686645508Q110.41199990081788 18.72000068664551 111.34799990081787 19.800000686645507Q112.28399990081788 20.88000068664551 113.75999990081787 20.88000068664551Q115.23599990081787 20.88000068664551 116.17199990081787 19.800000686645507Q117.10799990081787 18.72000068664551 117.10799990081787 16.812000686645508Q117.10799990081787 14.904000686645508 116.17199990081787 13.824000686645508Q115.23599990081787 12.744000686645508 113.75999990081787 12.744000686645508Q112.28399990081788 12.744000686645508 111.34799990081787 13.824000686645508Q110.41199990081788 14.904000686645508 110.41199990081788 16.812000686645508ZM139.39199990081786 7.020000686645506L139.39199990081786 13.176000686645509Q137.41199990081788 13.176000686645509 135.79199990081787 13.608000686645507Q134.17199990081787 14.040000686645508 133.37999990081786 15.048000686645508L133.37999990081786 26.280000686645508L126.53999990081786 26.280000686645508L126.53999990081786 7.344000686645508L132.80399990081787 7.344000686645508L132.80399990081787 10.944000686645508Q133.81199990081788 9.036000686645508 135.30599990081788 8.010000686645508Q136.79999990081788 6.984000686645508 138.52799990081786 6.984000686645508Q139.21199990081786 6.984000686645508 139.39199990081786 7.020000686645506ZM160.55999990081787 13.824000686645508L160.55999990081787 26.280000686645508L153.71999990081787 26.280000686645508L153.71999990081787 15.624000686645507Q153.71999990081787 14.220000686645507 153.08999990081787 13.590000686645508Q152.45999990081788 12.960000686645508 151.63199990081787 12.960000686645508Q150.76799990081787 12.960000686645508 149.79599990081786 13.716000686645508Q148.82399990081788 14.472000686645508 148.35599990081786 15.660000686645509L148.35599990081786 26.280000686645508L141.51599990081786 26.280000686645508L141.51599990081786 7.344000686645508L147.67199990081787 7.344000686645508L147.67199990081787 10.152000686645508Q148.67999990081788 8.60400068664551 150.49799990081786 7.794000686645507Q152.31599990081787 6.984000686645508 154.79999990081788 6.984000686645508Q156.74399990081787 6.984000686645508 157.87799990081788 7.686000686645507Q159.01199990081787 8.388000686645508 159.60599990081786 9.432000686645509Q160.19999990081786 10.476000686645508 160.37999990081786 11.664000686645508Q160.55999990081787 12.852000686645507 160.55999990081787 13.824000686645508Z " fill="#005a97"></path></g><g id="SvgjsG1015" transform="matrix(1,0,0,1,59.33000183105469,62)"><title>0027_MonoH_parallelepiped_verti</title><path id="color_1" d="M65.78,114,77,120.45l.43.24L89,114v-11.4l9.88,5.7,11.6-6.7V51l-11.6-6.7L87.25,51v11.4l-9.87-5.7-11.6,6.7ZM98,58.2V81L89,75.8V53Zm-.86,24.3L89,87.21V77.79ZM98,96.39v9.42l-8.16-4.71Zm9.88-44.89-9,5.21-9-5.21,9-5.2ZM86.39,63.9l-9,5.21-9-5.21,9-5.21ZM67.5,65.39l9,5.21v47.61l-9-5.21Z" fill="#005a97"></path></g></svg>
