<svg xmlns="http://www.w3.org/2000/svg" width="256" height="528">
    <style>
        line, path, circle,rect,polygon{stroke:black;stroke-width:2;stroke-opacity:1;fill-opacity:1;stroke-linecap:round;stroke-linejoin:miter;}text{font-family:monospace;font-size:14px;}rect.backdrop{stroke:none;fill:white;}.broken{stroke-dasharray:8;}.filled{fill:black;}.bg_filled{fill:white;}.nofill{fill:white;}.end_marked_arrow{marker-end:url(#arrow);}.start_marked_arrow{marker-start:url(#arrow);}.end_marked_diamond{marker-end:url(#diamond);}.start_marked_diamond{marker-start:url(#diamond);}.end_marked_circle{marker-end:url(#circle);}.start_marked_circle{marker-start:url(#circle);}.end_marked_open_circle{marker-end:url(#open_circle);}.start_marked_open_circle{marker-start:url(#open_circle);}.end_marked_big_open_circle{marker-end:url(#big_open_circle);}.start_marked_big_open_circle{marker-start:url(#big_open_circle);}
        
    </style>
    <defs>
        <marker id="arrow" viewBox="-2 -2 8 8" refX="4" refY="2" markerWidth="7" markerHeight="7" orient="auto-start-reverse">
            <polygon points="0,0 0,4 4,2 0,0"></polygon>
        </marker>
        <marker id="diamond" viewBox="-2 -2 8 8" refX="4" refY="2" markerWidth="7" markerHeight="7" orient="auto-start-reverse">
            <polygon points="0,2 2,0 4,2 2,4 0,2"></polygon>
        </marker>
        <marker id="circle" viewBox="0 0 8 8" refX="4" refY="4" markerWidth="7" markerHeight="7" orient="auto-start-reverse">
            <circle cx="4" cy="4" r="2" class="filled"></circle>
        </marker>
        <marker id="open_circle" viewBox="0 0 8 8" refX="4" refY="4" markerWidth="7" markerHeight="7" orient="auto-start-reverse">
            <circle cx="4" cy="4" r="2" class="bg_filled"></circle>
        </marker>
        <marker id="big_open_circle" viewBox="0 0 8 8" refX="4" refY="4" markerWidth="7" markerHeight="7" orient="auto-start-reverse">
            <circle cx="4" cy="4" r="3" class="bg_filled"></circle>
        </marker>
    </defs>
    <rect class="backdrop" x="0" y="0" width="256" height="528"></rect>
    <text x="66" y="492" >DB</text>
    <text x="122" y="60" >internet</text>
    <g>
        <path d="M 152,8 A 8,8 0,0,0 146,12" class="nofill"></path>
        <line x1="146" y1="12" x2="144" y2="16" class="solid"></line>
        <line x1="152" y1="8" x2="160" y2="8" class="solid"></line>
        <path d="M 160,8 A 8,8 0,0,1 166,12" class="nofill"></path>
        <line x1="166" y1="12" x2="168" y2="16" class="solid"></line>
        <path d="M 144,16 A 16,16 0,0,0 144,32" class="nofill"></path>
        <path d="M 168,16 A 16,16 0,0,1 168,32" class="nofill"></path>
    </g>
    <g>
        <path d="M 120,24 A 8,8 0,0,0 114,28" class="nofill"></path>
        <line x1="114" y1="28" x2="112" y2="32" class="solid"></line>
        <line x1="120" y1="24" x2="136" y2="24" class="solid"></line>
        <path d="M 112,32 A 16,16 0,0,0 112,48" class="nofill"></path>
    </g>
    <g>
        <line x1="176" y1="24" x2="192" y2="24" class="solid"></line>
        <path d="M 192,24 A 8,8 0,0,1 198,28" class="nofill"></path>
        <line x1="198" y1="28" x2="200" y2="32" class="solid"></line>
        <path d="M 200,32 A 16,16 0,0,1 200,48" class="nofill"></path>
    </g>
    <g>
        <path d="M 96,40 A 8,8 0,0,0 90,44" class="nofill"></path>
        <line x1="90" y1="44" x2="88" y2="48" class="solid"></line>
        <line x1="96" y1="40" x2="104" y2="40" class="solid"></line>
        <path d="M 88,48 A 16,16 0,0,0 88,64" class="nofill"></path>
        <line x1="88" y1="64" x2="90" y2="68" class="solid"></line>
        <path d="M 90,68 A 8,8 0,0,0 96,72" class="nofill"></path>
        <line x1="96" y1="72" x2="104" y2="72" class="solid"></line>
    </g>
    <g>
        <line x1="208" y1="40" x2="216" y2="40" class="solid"></line>
        <path d="M 216,40 A 8,8 0,0,1 222,44" class="nofill"></path>
        <line x1="222" y1="44" x2="224" y2="48" class="solid"></line>
        <path d="M 224,48 A 16,16 0,0,1 224,64" class="nofill"></path>
        <line x1="224" y1="64" x2="222" y2="68" class="solid"></line>
        <line x1="208" y1="72" x2="216" y2="72" class="solid"></line>
        <path d="M 222,68 A 8,8 0,0,1 216,72" class="nofill"></path>
    </g>
    <g>
        <path d="M 112,64 A 16,16 0,0,0 112,80" class="nofill"></path>
        <line x1="112" y1="80" x2="114" y2="84" class="solid"></line>
        <path d="M 114,84 A 8,8 0,0,0 120,88" class="nofill"></path>
        <line x1="120" y1="88" x2="136" y2="88" class="solid"></line>
    </g>
    <g>
        <path d="M 200,64 A 16,16 0,0,1 200,80" class="nofill"></path>
        <line x1="200" y1="80" x2="198" y2="84" class="solid"></line>
        <line x1="176" y1="88" x2="192" y2="88" class="solid"></line>
        <path d="M 198,84 A 8,8 0,0,1 192,88" class="nofill"></path>
    </g>
    <g>
        <path d="M 144,80 A 16,16 0,0,0 144,96" class="nofill"></path>
        <line x1="144" y1="96" x2="146" y2="100" class="solid"></line>
        <path d="M 146,100 A 8,8 0,0,0 152,104" class="nofill"></path>
        <line x1="152" y1="104" x2="160" y2="104" class="solid"></line>
        <path d="M 168,80 A 16,16 0,0,1 168,96" class="nofill"></path>
        <line x1="168" y1="96" x2="166" y2="100" class="solid"></line>
        <path d="M 166,100 A 8,8 0,0,1 160,104" class="nofill"></path>
    </g>
    <g>
        <line x1="124" y1="96" x2="124" y2="148" class="solid"></line>
        <polygon points="120,148 128,148 124,160" class="filled"></polygon>
    </g>
    <g>
        <line x1="188" y1="96" x2="188" y2="148" class="solid"></line>
        <polygon points="184,148 192,148 188,160" class="filled"></polygon>
    </g>
    <g>
        <path d="M 120,168 A 8,8 0,0,0 114,172" class="nofill"></path>
        <line x1="114" y1="172" x2="112" y2="176" class="solid"></line>
        <line x1="120" y1="168" x2="128" y2="168" class="solid"></line>
        <path d="M 128,168 A 8,8 0,0,1 134,172" class="nofill"></path>
        <line x1="134" y1="172" x2="136" y2="176" class="solid"></line>
        <path d="M 112,176 A 16,16 0,0,0 112,192" class="nofill"></path>
        <path d="M 136,176 A 16,16 0,0,1 136,192" class="nofill"></path>
        <line x1="112" y1="192" x2="114" y2="196" class="solid"></line>
        <path d="M 114,196 A 8,8 0,0,0 120,200" class="nofill"></path>
        <line x1="120" y1="200" x2="128" y2="200" class="solid"></line>
        <line x1="136" y1="192" x2="134" y2="196" class="solid"></line>
        <path d="M 134,196 A 8,8 0,0,1 128,200" class="nofill"></path>
    </g>
    <g>
        <path d="M 184,168 A 8,8 0,0,0 178,172" class="nofill"></path>
        <line x1="178" y1="172" x2="176" y2="176" class="solid"></line>
        <line x1="184" y1="168" x2="192" y2="168" class="solid"></line>
        <path d="M 192,168 A 8,8 0,0,1 198,172" class="nofill"></path>
        <line x1="198" y1="172" x2="200" y2="176" class="solid"></line>
        <path d="M 176,176 A 16,16 0,0,0 176,192" class="nofill"></path>
        <path d="M 200,176 A 16,16 0,0,1 200,192" class="nofill"></path>
        <line x1="176" y1="192" x2="178" y2="196" class="solid"></line>
        <path d="M 178,196 A 8,8 0,0,0 184,200" class="nofill"></path>
        <line x1="184" y1="200" x2="192" y2="200" class="solid"></line>
        <line x1="200" y1="192" x2="198" y2="196" class="solid"></line>
        <path d="M 198,196 A 8,8 0,0,1 192,200" class="nofill"></path>
    </g>
    <g>
        <text x="114" y="188">µ</text>
        <text x="122" y="188">S</text>
    </g>
    <g>
        <text x="178" y="188">µ</text>
        <text x="186" y="188">S</text>
    </g>
    <g>
        <line x1="104" y1="208" x2="86" y2="244" class="solid"></line>
        <polygon points="89,244 82,252 82,241" class="filled"></polygon>
    </g>
    <g>
        <line x1="144" y1="208" x2="162" y2="244" class="solid"></line>
        <polygon points="159,244 166,252 166,241" class="filled"></polygon>
    </g>
    <g>
        <line x1="188" y1="208" x2="188" y2="244" class="solid"></line>
        <polygon points="184,244 192,244 188,256" class="filled"></polygon>
    </g>
    <g>
        <path d="M 80,264 A 8,8 0,0,0 74,268" class="nofill"></path>
        <line x1="74" y1="268" x2="72" y2="272" class="solid"></line>
        <line x1="80" y1="264" x2="88" y2="264" class="solid"></line>
        <path d="M 88,264 A 8,8 0,0,1 94,268" class="nofill"></path>
        <line x1="94" y1="268" x2="96" y2="272" class="solid"></line>
        <path d="M 72,272 A 16,16 0,0,0 72,288" class="nofill"></path>
        <path d="M 96,272 A 16,16 0,0,1 96,288" class="nofill"></path>
        <line x1="72" y1="288" x2="74" y2="292" class="solid"></line>
        <path d="M 74,292 A 8,8 0,0,0 80,296" class="nofill"></path>
        <line x1="80" y1="296" x2="88" y2="296" class="solid"></line>
        <line x1="96" y1="288" x2="94" y2="292" class="solid"></line>
        <path d="M 94,292 A 8,8 0,0,1 88,296" class="nofill"></path>
    </g>
    <g>
        <path d="M 176,264 A 8,8 0,0,0 170,268" class="nofill"></path>
        <line x1="170" y1="268" x2="168" y2="272" class="solid"></line>
        <line x1="176" y1="264" x2="184" y2="264" class="solid"></line>
        <path d="M 184,264 A 8,8 0,0,1 190,268" class="nofill"></path>
        <line x1="190" y1="268" x2="192" y2="272" class="solid"></line>
        <path d="M 168,272 A 16,16 0,0,0 168,288" class="nofill"></path>
        <path d="M 192,272 A 16,16 0,0,1 192,288" class="nofill"></path>
        <line x1="168" y1="288" x2="170" y2="292" class="solid"></line>
        <path d="M 170,292 A 8,8 0,0,0 176,296" class="nofill"></path>
        <line x1="176" y1="296" x2="184" y2="296" class="solid"></line>
        <line x1="192" y1="288" x2="190" y2="292" class="solid"></line>
        <path d="M 190,292 A 8,8 0,0,1 184,296" class="nofill"></path>
    </g>
    <g>
        <text x="74" y="284">µ</text>
        <text x="82" y="284">S</text>
    </g>
    <g>
        <text x="170" y="284">µ</text>
        <text x="178" y="284">S</text>
    </g>
    <g>
        <line x1="160" y1="288" x2="134" y2="340" class="solid"></line>
        <polygon points="137,340 130,348 130,337" class="filled"></polygon>
    </g>
    <g>
        <line x1="64" y1="304" x2="46" y2="340" class="solid"></line>
        <polygon points="49,340 42,348 42,337" class="filled"></polygon>
    </g>
    <g>
        <line x1="88" y1="304" x2="106" y2="340" class="solid"></line>
        <polygon points="103,340 110,348 110,337" class="filled"></polygon>
    </g>
    <g>
        <line x1="172" y1="304" x2="172" y2="356" class="solid"></line>
        <polygon points="168,356 176,356 172,368" class="filled"></polygon>
    </g>
    <g>
        <line x1="192" y1="304" x2="218" y2="356" class="solid"></line>
        <polygon points="215,356 222,364 222,353" class="filled"></polygon>
    </g>
    <g>
        <path d="M 32,360 A 8,8 0,0,0 26,364" class="nofill"></path>
        <line x1="26" y1="364" x2="24" y2="368" class="solid"></line>
        <line x1="32" y1="360" x2="40" y2="360" class="solid"></line>
        <path d="M 40,360 A 8,8 0,0,1 46,364" class="nofill"></path>
        <line x1="46" y1="364" x2="48" y2="368" class="solid"></line>
        <path d="M 24,368 A 16,16 0,0,0 24,384" class="nofill"></path>
        <path d="M 48,368 A 16,16 0,0,1 48,384" class="nofill"></path>
        <line x1="24" y1="384" x2="26" y2="388" class="solid"></line>
        <path d="M 26,388 A 8,8 0,0,0 32,392" class="nofill"></path>
        <line x1="32" y1="392" x2="40" y2="392" class="solid"></line>
        <line x1="48" y1="384" x2="46" y2="388" class="solid"></line>
        <path d="M 46,388 A 8,8 0,0,1 40,392" class="nofill"></path>
    </g>
    <g>
        <path d="M 112,360 A 8,8 0,0,0 106,364" class="nofill"></path>
        <line x1="106" y1="364" x2="104" y2="368" class="solid"></line>
        <line x1="112" y1="360" x2="120" y2="360" class="solid"></line>
        <path d="M 120,360 A 8,8 0,0,1 126,364" class="nofill"></path>
        <line x1="126" y1="364" x2="128" y2="368" class="solid"></line>
        <path d="M 104,368 A 16,16 0,0,0 104,384" class="nofill"></path>
        <path d="M 128,368 A 16,16 0,0,1 128,384" class="nofill"></path>
        <line x1="104" y1="384" x2="106" y2="388" class="solid"></line>
        <path d="M 106,388 A 8,8 0,0,0 112,392" class="nofill"></path>
        <line x1="112" y1="392" x2="120" y2="392" class="solid"></line>
        <line x1="128" y1="384" x2="126" y2="388" class="solid"></line>
        <path d="M 126,388 A 8,8 0,0,1 120,392" class="nofill"></path>
    </g>
    <g>
        <text x="26" y="380">µ</text>
        <text x="34" y="380">S</text>
    </g>
    <g>
        <text x="106" y="380">µ</text>
        <text x="114" y="380">S</text>
    </g>
    <g>
        <path d="M 176,376 A 8,8 0,0,0 170,380" class="nofill"></path>
        <line x1="170" y1="380" x2="168" y2="384" class="solid"></line>
        <line x1="176" y1="376" x2="184" y2="376" class="solid"></line>
        <path d="M 184,376 A 8,8 0,0,1 190,380" class="nofill"></path>
        <line x1="190" y1="380" x2="192" y2="384" class="solid"></line>
        <path d="M 168,384 A 16,16 0,0,0 168,400" class="nofill"></path>
        <path d="M 192,384 A 16,16 0,0,1 192,400" class="nofill"></path>
        <line x1="168" y1="400" x2="170" y2="404" class="solid"></line>
        <path d="M 170,404 A 8,8 0,0,0 176,408" class="nofill"></path>
        <line x1="176" y1="408" x2="184" y2="408" class="solid"></line>
        <line x1="192" y1="400" x2="190" y2="404" class="solid"></line>
        <path d="M 190,404 A 8,8 0,0,1 184,408" class="nofill"></path>
    </g>
    <g>
        <path d="M 224,376 A 8,8 0,0,0 218,380" class="nofill"></path>
        <line x1="218" y1="380" x2="216" y2="384" class="solid"></line>
        <line x1="224" y1="376" x2="232" y2="376" class="solid"></line>
        <path d="M 232,376 A 8,8 0,0,1 238,380" class="nofill"></path>
        <line x1="238" y1="380" x2="240" y2="384" class="solid"></line>
        <path d="M 216,384 A 16,16 0,0,0 216,400" class="nofill"></path>
        <path d="M 240,384 A 16,16 0,0,1 240,400" class="nofill"></path>
        <line x1="216" y1="400" x2="218" y2="404" class="solid"></line>
        <path d="M 218,404 A 8,8 0,0,0 224,408" class="nofill"></path>
        <line x1="224" y1="408" x2="232" y2="408" class="solid"></line>
        <line x1="240" y1="400" x2="238" y2="404" class="solid"></line>
        <path d="M 238,404 A 8,8 0,0,1 232,408" class="nofill"></path>
    </g>
    <g>
        <text x="170" y="396">µ</text>
        <text x="178" y="396">S</text>
    </g>
    <g>
        <text x="218" y="396">µ</text>
        <text x="226" y="396">S</text>
    </g>
    <g>
        <line x1="40" y1="400" x2="66" y2="452" class="solid"></line>
        <polygon points="63,452 70,460 70,449" class="filled"></polygon>
    </g>
    <g>
        <line x1="112" y1="400" x2="86" y2="452" class="solid"></line>
        <polygon points="89,452 82,460 82,449" class="filled"></polygon>
    </g>
    <g>
        <path d="M 64,472 A 8,8 0,0,0 58,476" class="nofill"></path>
        <line x1="58" y1="476" x2="56" y2="480" class="solid"></line>
        <line x1="64" y1="472" x2="88" y2="472" class="solid"></line>
        <path d="M 88,472 A 8,8 0,0,1 94,476" class="nofill"></path>
        <line x1="94" y1="476" x2="96" y2="480" class="solid"></line>
        <path d="M 56,480 A 16,16 0,0,0 56,496" class="nofill"></path>
        <path d="M 96,480 A 16,16 0,0,1 96,496" class="nofill"></path>
        <line x1="56" y1="496" x2="58" y2="500" class="solid"></line>
        <path d="M 58,500 A 8,8 0,0,0 64,504" class="nofill"></path>
        <line x1="64" y1="504" x2="88" y2="504" class="solid"></line>
        <line x1="96" y1="496" x2="94" y2="500" class="solid"></line>
        <path d="M 94,500 A 8,8 0,0,1 88,504" class="nofill"></path>
    </g>
</svg>
