<svg xmlns="http://www.w3.org/2000/svg" width="960" height="624">
    <style>
        line, path, circle,rect,polygon{stroke:black;stroke-width:2;stroke-opacity:1;fill-opacity:1;stroke-linecap:round;stroke-linejoin:miter;}text{font-family:monospace;font-size:14px;}rect.backdrop{stroke:none;fill:white;}.broken{stroke-dasharray:8;}.filled{fill:black;}.bg_filled{fill:white;}.nofill{fill:white;}.end_marked_arrow{marker-end:url(#arrow);}.start_marked_arrow{marker-start:url(#arrow);}.end_marked_diamond{marker-end:url(#diamond);}.start_marked_diamond{marker-start:url(#diamond);}.end_marked_circle{marker-end:url(#circle);}.start_marked_circle{marker-start:url(#circle);}.end_marked_open_circle{marker-end:url(#open_circle);}.start_marked_open_circle{marker-start:url(#open_circle);}.end_marked_big_open_circle{marker-end:url(#big_open_circle);}.start_marked_big_open_circle{marker-start:url(#big_open_circle);}
        
    </style>
    <defs>
        <marker id="arrow" viewBox="-2 -2 8 8" refX="4" refY="2" markerWidth="7" markerHeight="7" orient="auto-start-reverse">
            <polygon points="0,0 0,4 4,2 0,0"></polygon>
        </marker>
        <marker id="diamond" viewBox="-2 -2 8 8" refX="4" refY="2" markerWidth="7" markerHeight="7" orient="auto-start-reverse">
            <polygon points="0,2 2,0 4,2 2,4 0,2"></polygon>
        </marker>
        <marker id="circle" viewBox="0 0 8 8" refX="4" refY="4" markerWidth="7" markerHeight="7" orient="auto-start-reverse">
            <circle cx="4" cy="4" r="2" class="filled"></circle>
        </marker>
        <marker id="open_circle" viewBox="0 0 8 8" refX="4" refY="4" markerWidth="7" markerHeight="7" orient="auto-start-reverse">
            <circle cx="4" cy="4" r="2" class="bg_filled"></circle>
        </marker>
        <marker id="big_open_circle" viewBox="0 0 8 8" refX="4" refY="4" markerWidth="7" markerHeight="7" orient="auto-start-reverse">
            <circle cx="4" cy="4" r="3" class="bg_filled"></circle>
        </marker>
    </defs>
    <rect class="backdrop" x="0" y="0" width="960" height="624"></rect>
    <rect x="836" y="264" width="48" height="32" class="solid nofill" rx="0"></rect>
    <text x="850" y="284" >S3</text>
    <rect x="836" y="472" width="48" height="32" class="solid nofill" rx="0"></rect>
    <text x="850" y="492" >S3</text>
    <line x1="500" y1="64" x2="500" y2="144" class="solid"></line>
    <line x1="488" y1="152" x2="584" y2="152" class="solid"></line>
    <text x="850" y="156" >DB</text>
    <line x1="500" y1="160" x2="500" y2="272" class="solid"></line>
    <line x1="708" y1="160" x2="708" y2="288" class="solid"></line>
    <text x="2" y="204" >.........................</text>
    <text x="210" y="204" >......................</text>
    <text x="394" y="204" >........</text>
    <text x="466" y="204" >....</text>
    <text x="506" y="204" >............</text>
    <text x="610" y="204" >............</text>
    <text x="714" y="204" >..............................</text>
    <line x1="448" y1="280" x2="584" y2="280" class="solid"></line>
    <line x1="624" y1="280" x2="696" y2="280" class="solid"></line>
    <line x1="500" y1="288" x2="500" y2="416" class="solid"></line>
    <text x="2" y="364" >...................</text>
    <text x="162" y="364" >..........</text>
    <text x="250" y="364" >...............</text>
    <text x="378" y="364" >......</text>
    <text x="434" y="364" >....</text>
    <text x="474" y="364" >...</text>
    <text x="506" y="364" >.....................</text>
    <text x="682" y="364" >...</text>
    <text x="714" y="364" >..............................</text>
    <text x="850" y="428" >DB</text>
    <line x1="500" y1="432" x2="500" y2="448" class="solid"></line>
    <line x1="708" y1="432" x2="708" y2="480" class="solid"></line>
    <line x1="500" y1="464" x2="500" y2="480" class="solid"></line>
    <line x1="500" y1="496" x2="500" y2="544" class="solid"></line>
    <text x="898" y="124" >TEAM</text>
    <text x="938" y="124" >A</text>
    <text x="122" y="284" >internet</text>
    <text x="898" y="284" >TEAM</text>
    <text x="938" y="284" >B</text>
    <text x="898" y="460" >TEAM</text>
    <text x="938" y="460" >C</text>
    <g>
        <path d="M 368,24 A 4,4 0,0,0 364,28" class="nofill"></path>
        <line x1="364" y1="28" x2="364" y2="52" class="solid"></line>
        <line x1="368" y1="24" x2="496" y2="24" class="solid"></line>
        <path d="M 496,24 A 4,4 0,0,1 500,28" class="nofill"></path>
        <line x1="500" y1="28" x2="500" y2="48" class="solid"></line>
        <polygon points="360,52 368,52 364,64" class="filled"></polygon>
    </g>
    <g>
        <path d="M 392,56 A 8,8 0,0,0 386,60" class="nofill"></path>
        <line x1="386" y1="60" x2="376" y2="80" class="solid"></line>
        <line x1="392" y1="56" x2="520" y2="56" class="solid"></line>
        <path d="M 520,56 A 8,8 0,0,1 526,60" class="nofill"></path>
        <line x1="526" y1="60" x2="538" y2="84" class="solid"></line>
        <polygon points="535,84 542,92 542,81" class="filled"></polygon>
        <path d="M 360,72 A 8,8 0,0,0 354,76" class="nofill"></path>
        <line x1="354" y1="76" x2="352" y2="80" class="solid"></line>
        <line x1="360" y1="72" x2="368" y2="72" class="solid"></line>
        <path d="M 368,72 A 8,8 0,0,1 374,76" class="nofill"></path>
        <line x1="374" y1="76" x2="376" y2="80" class="solid"></line>
        <path d="M 352,80 A 16,16 0,0,0 352,96" class="nofill"></path>
        <path d="M 376,80 A 16,16 0,0,1 376,96" class="nofill"></path>
        <line x1="352" y1="96" x2="354" y2="100" class="solid"></line>
        <path d="M 354,100 A 8,8 0,0,0 360,104" class="nofill"></path>
        <line x1="360" y1="104" x2="368" y2="104" class="solid"></line>
        <line x1="376" y1="96" x2="374" y2="100" class="solid"></line>
        <path d="M 374,100 A 8,8 0,0,1 368,104" class="nofill"></path>
        <path d="M 560,72 A 8,8 0,0,0 554,76" class="nofill"></path>
        <line x1="554" y1="76" x2="552" y2="80" class="solid"></line>
        <line x1="560" y1="72" x2="568" y2="72" class="solid"></line>
        <path d="M 568,72 A 8,8 0,0,1 574,76" class="nofill"></path>
        <line x1="574" y1="76" x2="576" y2="80" class="solid"></line>
        <path d="M 552,80 A 16,16 0,0,0 552,96" class="nofill"></path>
        <path d="M 576,80 A 16,16 0,0,1 576,96" class="nofill"></path>
        <line x1="552" y1="96" x2="554" y2="100" class="solid"></line>
        <path d="M 554,100 A 8,8 0,0,0 560,104" class="nofill"></path>
        <line x1="560" y1="104" x2="568" y2="104" class="solid"></line>
        <line x1="576" y1="96" x2="574" y2="100" class="solid"></line>
        <path d="M 574,100 A 8,8 0,0,1 568,104" class="nofill"></path>
    </g>
    <g>
        <path d="M 248,72 A 8,8 0,0,0 242,76" class="nofill"></path>
        <line x1="242" y1="76" x2="240" y2="80" class="solid"></line>
        <line x1="248" y1="72" x2="256" y2="72" class="solid"></line>
        <path d="M 256,72 A 8,8 0,0,1 262,76" class="nofill"></path>
        <line x1="262" y1="76" x2="264" y2="80" class="solid"></line>
        <path d="M 240,80 A 16,16 0,0,0 240,96" class="nofill"></path>
        <path d="M 264,80 A 16,16 0,0,1 264,96" class="nofill"></path>
        <line x1="240" y1="96" x2="242" y2="100" class="solid"></line>
        <path d="M 242,100 A 8,8 0,0,0 248,104" class="nofill"></path>
        <line x1="248" y1="104" x2="256" y2="104" class="solid"></line>
        <line x1="264" y1="96" x2="262" y2="100" class="solid"></line>
        <path d="M 262,100 A 8,8 0,0,1 256,104" class="nofill"></path>
        <line x1="264" y1="96" x2="290" y2="148" class="solid"></line>
        <path d="M 290,148 A 8,8 0,0,0 296,152" class="nofill"></path>
        <line x1="296" y1="152" x2="344" y2="152" class="solid"></line>
        <polygon points="344,148 352,152 344,156" class="filled"></polygon>
    </g>
    <g>
        <path d="M 704,72 A 8,8 0,0,0 698,76" class="nofill"></path>
        <line x1="698" y1="76" x2="696" y2="80" class="solid"></line>
        <line x1="704" y1="72" x2="712" y2="72" class="solid"></line>
        <path d="M 712,72 A 8,8 0,0,1 718,76" class="nofill"></path>
        <line x1="718" y1="76" x2="720" y2="80" class="solid"></line>
        <path d="M 696,80 A 16,16 0,0,0 696,96" class="nofill"></path>
        <path d="M 720,80 A 16,16 0,0,1 720,96" class="nofill"></path>
        <line x1="696" y1="96" x2="698" y2="100" class="solid"></line>
        <path d="M 698,100 A 8,8 0,0,0 704,104" class="nofill"></path>
        <line x1="704" y1="104" x2="712" y2="104" class="solid"></line>
        <line x1="720" y1="96" x2="718" y2="100" class="solid"></line>
        <path d="M 718,100 A 8,8 0,0,1 712,104" class="nofill"></path>
    </g>
    <g>
        <text x="242" y="92">µ</text>
        <text x="250" y="92">S</text>
    </g>
    <g>
        <line x1="272" y1="88" x2="336" y2="88" class="solid"></line>
        <polygon points="336,84 344,88 336,92" class="filled"></polygon>
    </g>
    <g>
        <text x="354" y="92">µ</text>
        <text x="362" y="92">S</text>
    </g>
    <g>
        <line x1="384" y1="88" x2="464" y2="88" class="solid"></line>
        <path d="M 464,88 A 4,4 0,0,1 468,92" class="nofill"></path>
        <line x1="468" y1="92" x2="468" y2="116" class="solid"></line>
        <polygon points="464,116 472,116 468,128" class="filled"></polygon>
    </g>
    <g>
        <text x="554" y="92">µ</text>
        <text x="562" y="92">S</text>
    </g>
    <g>
        <line x1="584" y1="88" x2="680" y2="88" class="solid"></line>
        <polygon points="680,84 688,88 680,92" class="filled"></polygon>
    </g>
    <g>
        <text x="698" y="92">µ</text>
        <text x="706" y="92">S</text>
    </g>
    <g>
        <line x1="728" y1="88" x2="800" y2="88" class="solid"></line>
        <path d="M 800,88 A 8,8 0,0,1 806,92" class="nofill"></path>
        <line x1="806" y1="92" x2="826" y2="132" class="solid"></line>
        <polygon points="823,132 830,140 830,129" class="filled"></polygon>
    </g>
    <g>
        <polygon points="239,124 246,116 246,127" class="filled"></polygon>
        <line x1="242" y1="124" x2="184" y2="240" class="solid"></line>
    </g>
    <g>
        <polygon points="704,124 708,112 712,124" class="filled"></polygon>
        <line x1="708" y1="124" x2="708" y2="144" class="solid"></line>
    </g>
    <g>
        <path d="M 368,136 A 8,8 0,0,0 362,140" class="nofill"></path>
        <line x1="362" y1="140" x2="360" y2="144" class="solid"></line>
        <line x1="368" y1="136" x2="376" y2="136" class="solid"></line>
        <path d="M 376,136 A 8,8 0,0,1 382,140" class="nofill"></path>
        <line x1="382" y1="140" x2="384" y2="144" class="solid"></line>
        <path d="M 360,144 A 16,16 0,0,0 360,160" class="nofill"></path>
        <path d="M 384,144 A 16,16 0,0,1 384,160" class="nofill"></path>
        <line x1="360" y1="160" x2="362" y2="164" class="solid"></line>
        <path d="M 362,164 A 8,8 0,0,0 368,168" class="nofill"></path>
        <line x1="368" y1="168" x2="376" y2="168" class="solid"></line>
        <line x1="384" y1="160" x2="382" y2="164" class="solid"></line>
        <path d="M 382,164 A 8,8 0,0,1 376,168" class="nofill"></path>
    </g>
    <g>
        <path d="M 464,136 A 8,8 0,0,0 458,140" class="nofill"></path>
        <line x1="458" y1="140" x2="456" y2="144" class="solid"></line>
        <line x1="464" y1="136" x2="472" y2="136" class="solid"></line>
        <path d="M 472,136 A 8,8 0,0,1 478,140" class="nofill"></path>
        <line x1="478" y1="140" x2="480" y2="144" class="solid"></line>
        <path d="M 456,144 A 16,16 0,0,0 456,160" class="nofill"></path>
        <path d="M 480,144 A 16,16 0,0,1 480,160" class="nofill"></path>
        <line x1="456" y1="160" x2="458" y2="164" class="solid"></line>
        <path d="M 458,164 A 8,8 0,0,0 464,168" class="nofill"></path>
        <line x1="464" y1="168" x2="472" y2="168" class="solid"></line>
        <line x1="480" y1="160" x2="478" y2="164" class="solid"></line>
        <path d="M 478,164 A 8,8 0,0,1 472,168" class="nofill"></path>
    </g>
    <g>
        <path d="M 600,136 A 8,8 0,0,0 594,140" class="nofill"></path>
        <line x1="594" y1="140" x2="592" y2="144" class="solid"></line>
        <line x1="600" y1="136" x2="608" y2="136" class="solid"></line>
        <path d="M 608,136 A 8,8 0,0,1 614,140" class="nofill"></path>
        <line x1="614" y1="140" x2="616" y2="144" class="solid"></line>
        <path d="M 592,144 A 16,16 0,0,0 592,160" class="nofill"></path>
        <path d="M 616,144 A 16,16 0,0,1 616,160" class="nofill"></path>
        <line x1="592" y1="160" x2="594" y2="164" class="solid"></line>
        <path d="M 594,164 A 8,8 0,0,0 600,168" class="nofill"></path>
        <line x1="600" y1="168" x2="608" y2="168" class="solid"></line>
        <line x1="616" y1="160" x2="614" y2="164" class="solid"></line>
        <path d="M 614,164 A 8,8 0,0,1 608,168" class="nofill"></path>
    </g>
    <g>
        <path d="M 848,136 A 8,8 0,0,0 842,140" class="nofill"></path>
        <line x1="842" y1="140" x2="840" y2="144" class="solid"></line>
        <line x1="848" y1="136" x2="872" y2="136" class="solid"></line>
        <path d="M 872,136 A 8,8 0,0,1 878,140" class="nofill"></path>
        <line x1="878" y1="140" x2="880" y2="144" class="solid"></line>
        <path d="M 840,144 A 16,16 0,0,0 840,160" class="nofill"></path>
        <path d="M 880,144 A 16,16 0,0,1 880,160" class="nofill"></path>
        <line x1="840" y1="160" x2="842" y2="164" class="solid"></line>
        <path d="M 842,164 A 8,8 0,0,0 848,168" class="nofill"></path>
        <line x1="848" y1="168" x2="872" y2="168" class="solid"></line>
        <line x1="880" y1="160" x2="878" y2="164" class="solid"></line>
        <path d="M 878,164 A 8,8 0,0,1 872,168" class="nofill"></path>
    </g>
    <g>
        <text x="362" y="156">µ</text>
        <text x="370" y="156">S</text>
    </g>
    <g>
        <line x1="392" y1="152" x2="440" y2="152" class="solid"></line>
        <polygon points="440,148 448,152 440,156" class="filled"></polygon>
    </g>
    <g>
        <text x="458" y="156">µ</text>
        <text x="466" y="156">S</text>
    </g>
    <g>
        <text x="594" y="156">µ</text>
        <text x="602" y="156">S</text>
    </g>
    <g>
        <line x1="624" y1="152" x2="824" y2="152" class="solid"></line>
        <polygon points="824,148 832,152 824,156" class="filled"></polygon>
    </g>
    <g>
        <line x1="376" y1="176" x2="410" y2="244" class="solid"></line>
        <polygon points="407,244 414,252 414,241" class="filled"></polygon>
    </g>
    <g>
        <polygon points="463,188 470,180 470,191" class="filled"></polygon>
        <line x1="466" y1="188" x2="432" y2="256" class="solid"></line>
    </g>
    <g>
        <polygon points="600,188 604,176 608,188" class="filled"></polygon>
        <line x1="604" y1="188" x2="604" y2="256" class="solid"></line>
    </g>
    <g>
        <path d="M 152,232 A 8,8 0,0,0 146,236" class="nofill"></path>
        <line x1="146" y1="236" x2="144" y2="240" class="solid"></line>
        <line x1="152" y1="232" x2="160" y2="232" class="solid"></line>
        <path d="M 160,232 A 8,8 0,0,1 166,236" class="nofill"></path>
        <line x1="166" y1="236" x2="168" y2="240" class="solid"></line>
        <path d="M 144,240 A 16,16 0,0,0 144,256" class="nofill"></path>
        <path d="M 168,240 A 16,16 0,0,1 168,256" class="nofill"></path>
    </g>
    <g>
        <path d="M 120,248 A 8,8 0,0,0 114,252" class="nofill"></path>
        <line x1="114" y1="252" x2="112" y2="256" class="solid"></line>
        <line x1="120" y1="248" x2="136" y2="248" class="solid"></line>
        <path d="M 112,256 A 16,16 0,0,0 112,272" class="nofill"></path>
    </g>
    <g>
        <line x1="176" y1="248" x2="192" y2="248" class="solid"></line>
        <path d="M 192,248 A 8,8 0,0,1 198,252" class="nofill"></path>
        <line x1="198" y1="252" x2="200" y2="256" class="solid"></line>
        <path d="M 200,256 A 16,16 0,0,1 200,272" class="nofill"></path>
    </g>
    <g>
        <path d="M 96,264 A 8,8 0,0,0 90,268" class="nofill"></path>
        <line x1="90" y1="268" x2="88" y2="272" class="solid"></line>
        <line x1="96" y1="264" x2="104" y2="264" class="solid"></line>
        <path d="M 88,272 A 16,16 0,0,0 88,288" class="nofill"></path>
        <line x1="88" y1="288" x2="90" y2="292" class="solid"></line>
        <path d="M 90,292 A 8,8 0,0,0 96,296" class="nofill"></path>
        <line x1="96" y1="296" x2="104" y2="296" class="solid"></line>
    </g>
    <g>
        <line x1="208" y1="264" x2="216" y2="264" class="solid"></line>
        <path d="M 216,264 A 8,8 0,0,1 222,268" class="nofill"></path>
        <line x1="222" y1="268" x2="224" y2="272" class="solid"></line>
        <path d="M 224,272 A 16,16 0,0,1 224,288" class="nofill"></path>
        <line x1="224" y1="288" x2="222" y2="292" class="solid"></line>
        <line x1="208" y1="296" x2="216" y2="296" class="solid"></line>
        <path d="M 222,292 A 8,8 0,0,1 216,296" class="nofill"></path>
    </g>
    <g>
        <path d="M 320,264 A 8,8 0,0,0 314,268" class="nofill"></path>
        <line x1="314" y1="268" x2="312" y2="272" class="solid"></line>
        <line x1="320" y1="264" x2="328" y2="264" class="solid"></line>
        <path d="M 328,264 A 8,8 0,0,1 334,268" class="nofill"></path>
        <line x1="334" y1="268" x2="336" y2="272" class="solid"></line>
        <path d="M 312,272 A 16,16 0,0,0 312,288" class="nofill"></path>
        <path d="M 336,272 A 16,16 0,0,1 336,288" class="nofill"></path>
        <line x1="312" y1="288" x2="314" y2="292" class="solid"></line>
        <path d="M 314,292 A 8,8 0,0,0 320,296" class="nofill"></path>
        <line x1="320" y1="296" x2="328" y2="296" class="solid"></line>
        <line x1="336" y1="288" x2="334" y2="292" class="solid"></line>
        <path d="M 334,292 A 8,8 0,0,1 328,296" class="nofill"></path>
    </g>
    <g>
        <path d="M 424,264 A 8,8 0,0,0 418,268" class="nofill"></path>
        <line x1="418" y1="268" x2="416" y2="272" class="solid"></line>
        <line x1="424" y1="264" x2="432" y2="264" class="solid"></line>
        <path d="M 432,264 A 8,8 0,0,1 438,268" class="nofill"></path>
        <line x1="438" y1="268" x2="440" y2="272" class="solid"></line>
        <path d="M 416,272 A 16,16 0,0,0 416,288" class="nofill"></path>
        <path d="M 440,272 A 16,16 0,0,1 440,288" class="nofill"></path>
        <line x1="416" y1="288" x2="418" y2="292" class="solid"></line>
        <path d="M 418,292 A 8,8 0,0,0 424,296" class="nofill"></path>
        <line x1="424" y1="296" x2="432" y2="296" class="solid"></line>
        <line x1="440" y1="288" x2="438" y2="292" class="solid"></line>
        <path d="M 438,292 A 8,8 0,0,1 432,296" class="nofill"></path>
    </g>
    <g>
        <path d="M 600,264 A 8,8 0,0,0 594,268" class="nofill"></path>
        <line x1="594" y1="268" x2="592" y2="272" class="solid"></line>
        <line x1="600" y1="264" x2="608" y2="264" class="solid"></line>
        <path d="M 608,264 A 8,8 0,0,1 614,268" class="nofill"></path>
        <line x1="614" y1="268" x2="616" y2="272" class="solid"></line>
        <path d="M 592,272 A 16,16 0,0,0 592,288" class="nofill"></path>
        <path d="M 616,272 A 16,16 0,0,1 616,288" class="nofill"></path>
        <line x1="592" y1="288" x2="594" y2="292" class="solid"></line>
        <path d="M 594,292 A 8,8 0,0,0 600,296" class="nofill"></path>
        <line x1="600" y1="296" x2="608" y2="296" class="solid"></line>
        <line x1="616" y1="288" x2="614" y2="292" class="solid"></line>
        <path d="M 614,292 A 8,8 0,0,1 608,296" class="nofill"></path>
    </g>
    <g>
        <line x1="232" y1="280" x2="296" y2="280" class="solid"></line>
        <polygon points="296,276 304,280 296,284" class="filled"></polygon>
    </g>
    <g>
        <text x="314" y="284">µ</text>
        <text x="322" y="284">S</text>
    </g>
    <g>
        <line x1="344" y1="280" x2="400" y2="280" class="solid"></line>
        <polygon points="400,276 408,280 400,284" class="filled"></polygon>
    </g>
    <g>
        <text x="418" y="284">µ</text>
        <text x="426" y="284">S</text>
    </g>
    <g>
        <text x="594" y="284">µ</text>
        <text x="602" y="284">S</text>
    </g>
    <g>
        <line x1="720" y1="280" x2="824" y2="280" class="solid"></line>
        <polygon points="824,276 832,280 824,284" class="filled"></polygon>
    </g>
    <g>
        <path d="M 112,288 A 16,16 0,0,0 112,304" class="nofill"></path>
        <line x1="112" y1="304" x2="114" y2="308" class="solid"></line>
        <path d="M 114,308 A 8,8 0,0,0 120,312" class="nofill"></path>
        <line x1="120" y1="312" x2="136" y2="312" class="solid"></line>
    </g>
    <g>
        <path d="M 200,288 A 16,16 0,0,1 200,304" class="nofill"></path>
        <line x1="200" y1="304" x2="198" y2="308" class="solid"></line>
        <line x1="176" y1="312" x2="192" y2="312" class="solid"></line>
        <path d="M 198,308 A 8,8 0,0,1 192,312" class="nofill"></path>
    </g>
    <g>
        <polygon points="449,300 442,292 442,303" class="filled"></polygon>
        <line x1="446" y1="300" x2="468" y2="344" class="solid"></line>
        <line x1="468" y1="344" x2="468" y2="416" class="solid"></line>
    </g>
    <g>
        <path d="M 704,296 A 8,8 0,0,0 698,300" class="nofill"></path>
        <line x1="698" y1="300" x2="696" y2="304" class="solid"></line>
        <line x1="704" y1="296" x2="712" y2="296" class="solid"></line>
        <path d="M 712,296 A 8,8 0,0,1 718,300" class="nofill"></path>
        <line x1="718" y1="300" x2="720" y2="304" class="solid"></line>
        <path d="M 696,304 A 16,16 0,0,0 696,320" class="nofill"></path>
        <path d="M 720,304 A 16,16 0,0,1 720,320" class="nofill"></path>
        <line x1="696" y1="320" x2="698" y2="324" class="solid"></line>
        <path d="M 698,324 A 8,8 0,0,0 704,328" class="nofill"></path>
        <line x1="704" y1="328" x2="712" y2="328" class="solid"></line>
        <line x1="720" y1="320" x2="718" y2="324" class="solid"></line>
        <path d="M 718,324 A 8,8 0,0,1 712,328" class="nofill"></path>
    </g>
    <g>
        <path d="M 144,304 A 16,16 0,0,0 144,320" class="nofill"></path>
        <line x1="144" y1="320" x2="146" y2="324" class="solid"></line>
        <path d="M 146,324 A 8,8 0,0,0 152,328" class="nofill"></path>
        <line x1="152" y1="328" x2="160" y2="328" class="solid"></line>
        <path d="M 168,304 A 16,16 0,0,1 168,320" class="nofill"></path>
        <line x1="168" y1="320" x2="166" y2="324" class="solid"></line>
        <path d="M 166,324 A 8,8 0,0,1 160,328" class="nofill"></path>
    </g>
    <g>
        <line x1="216" y1="304" x2="298" y2="468" class="solid"></line>
        <polygon points="295,468 302,476 302,465" class="filled"></polygon>
    </g>
    <g>
        <line x1="324" y1="304" x2="324" y2="324" class="solid"></line>
        <path d="M 324,324 A 4,4 0,0,0 328,328" class="nofill"></path>
        <line x1="328" y1="328" x2="368" y2="328" class="solid"></line>
        <path d="M 368,328 A 4,4 0,0,1 372,332" class="nofill"></path>
        <line x1="372" y1="332" x2="372" y2="388" class="solid"></line>
        <polygon points="368,388 376,388 372,400" class="filled"></polygon>
    </g>
    <g>
        <polygon points="424,316 428,304 432,316" class="filled"></polygon>
        <line x1="428" y1="316" x2="428" y2="400" class="solid"></line>
    </g>
    <g>
        <text x="698" y="316">µ</text>
        <text x="706" y="316">S</text>
    </g>
    <g>
        <polygon points="687,332 694,324 694,335" class="filled"></polygon>
        <line x1="690" y1="332" x2="664" y2="384" class="solid"></line>
        <line x1="632" y1="384" x2="664" y2="384" class="solid"></line>
        <line x1="632" y1="384" x2="616" y2="416" class="solid"></line>
        <path d="M 600,408 A 8,8 0,0,0 594,412" class="nofill"></path>
        <line x1="594" y1="412" x2="592" y2="416" class="solid"></line>
        <line x1="600" y1="408" x2="608" y2="408" class="solid"></line>
        <path d="M 608,408 A 8,8 0,0,1 614,412" class="nofill"></path>
        <line x1="614" y1="412" x2="616" y2="416" class="solid"></line>
        <path d="M 592,416 A 16,16 0,0,0 592,432" class="nofill"></path>
        <path d="M 616,416 A 16,16 0,0,1 616,432" class="nofill"></path>
        <line x1="592" y1="432" x2="594" y2="436" class="solid"></line>
        <path d="M 594,436 A 8,8 0,0,0 600,440" class="nofill"></path>
        <line x1="600" y1="440" x2="608" y2="440" class="solid"></line>
        <line x1="616" y1="432" x2="614" y2="436" class="solid"></line>
        <path d="M 614,436 A 8,8 0,0,1 608,440" class="nofill"></path>
    </g>
    <g>
        <line x1="156" y1="336" x2="156" y2="360" class="solid"></line>
        <line x1="156" y1="360" x2="242" y2="532" class="solid"></line>
        <polygon points="239,532 246,540 246,529" class="filled"></polygon>
    </g>
    <g>
        <polygon points="704,348 708,336 712,348" class="filled"></polygon>
        <line x1="708" y1="348" x2="708" y2="416" class="solid"></line>
    </g>
    <g>
        <path d="M 368,408 A 8,8 0,0,0 362,412" class="nofill"></path>
        <line x1="362" y1="412" x2="360" y2="416" class="solid"></line>
        <line x1="368" y1="408" x2="376" y2="408" class="solid"></line>
        <path d="M 376,408 A 8,8 0,0,1 382,412" class="nofill"></path>
        <line x1="382" y1="412" x2="384" y2="416" class="solid"></line>
        <path d="M 360,416 A 16,16 0,0,0 360,432" class="nofill"></path>
        <path d="M 384,416 A 16,16 0,0,1 384,432" class="nofill"></path>
        <line x1="360" y1="432" x2="362" y2="436" class="solid"></line>
        <path d="M 362,436 A 8,8 0,0,0 368,440" class="nofill"></path>
        <line x1="368" y1="440" x2="376" y2="440" class="solid"></line>
        <line x1="384" y1="432" x2="382" y2="436" class="solid"></line>
        <path d="M 382,436 A 8,8 0,0,1 376,440" class="nofill"></path>
    </g>
    <g>
        <path d="M 424,408 A 8,8 0,0,0 418,412" class="nofill"></path>
        <line x1="418" y1="412" x2="416" y2="416" class="solid"></line>
        <line x1="424" y1="408" x2="432" y2="408" class="solid"></line>
        <path d="M 432,408 A 8,8 0,0,1 438,412" class="nofill"></path>
        <line x1="438" y1="412" x2="440" y2="416" class="solid"></line>
        <path d="M 416,416 A 16,16 0,0,0 416,432" class="nofill"></path>
        <path d="M 440,416 A 16,16 0,0,1 440,432" class="nofill"></path>
        <line x1="416" y1="432" x2="418" y2="436" class="solid"></line>
        <path d="M 418,436 A 8,8 0,0,0 424,440" class="nofill"></path>
        <line x1="424" y1="440" x2="432" y2="440" class="solid"></line>
        <line x1="440" y1="432" x2="438" y2="436" class="solid"></line>
        <path d="M 438,436 A 8,8 0,0,1 432,440" class="nofill"></path>
    </g>
    <g>
        <path d="M 848,408 A 8,8 0,0,0 842,412" class="nofill"></path>
        <line x1="842" y1="412" x2="840" y2="416" class="solid"></line>
        <line x1="848" y1="408" x2="872" y2="408" class="solid"></line>
        <path d="M 872,408 A 8,8 0,0,1 878,412" class="nofill"></path>
        <line x1="878" y1="412" x2="880" y2="416" class="solid"></line>
        <path d="M 840,416 A 16,16 0,0,0 840,432" class="nofill"></path>
        <path d="M 880,416 A 16,16 0,0,1 880,432" class="nofill"></path>
        <line x1="840" y1="432" x2="842" y2="436" class="solid"></line>
        <path d="M 842,436 A 8,8 0,0,0 848,440" class="nofill"></path>
        <line x1="848" y1="440" x2="872" y2="440" class="solid"></line>
        <line x1="880" y1="432" x2="878" y2="436" class="solid"></line>
        <path d="M 878,436 A 8,8 0,0,1 872,440" class="nofill"></path>
    </g>
    <g>
        <path d="M 320,424 A 4,4 0,0,0 316,428" class="nofill"></path>
        <line x1="316" y1="428" x2="316" y2="464" class="solid"></line>
        <line x1="320" y1="424" x2="344" y2="424" class="solid"></line>
        <polygon points="344,420 352,424 344,428" class="filled"></polygon>
    </g>
    <g>
        <text x="362" y="428">µ</text>
        <text x="370" y="428">S</text>
    </g>
    <g>
        <line x1="392" y1="424" x2="400" y2="424" class="solid"></line>
        <polygon points="400,420 408,424 400,428" class="filled"></polygon>
    </g>
    <g>
        <text x="418" y="428">µ</text>
        <text x="426" y="428">S</text>
    </g>
    <g>
        <line x1="448" y1="424" x2="576" y2="424" class="solid"></line>
        <polygon points="576,420 584,424 576,428" class="filled"></polygon>
    </g>
    <g>
        <text x="594" y="428">µ</text>
        <text x="602" y="428">S</text>
    </g>
    <g>
        <line x1="624" y1="424" x2="824" y2="424" class="solid"></line>
        <polygon points="824,420 832,424 824,428" class="filled"></polygon>
    </g>
    <g>
        <line x1="468" y1="432" x2="468" y2="452" class="solid"></line>
        <path d="M 440,456 A 8,8 0,0,0 434,460" class="nofill"></path>
        <line x1="434" y1="460" x2="424" y2="480" class="solid"></line>
        <line x1="440" y1="456" x2="464" y2="456" class="solid"></line>
        <path d="M 468,452 A 4,4 0,0,1 464,456" class="nofill"></path>
        <path d="M 408,472 A 8,8 0,0,0 402,476" class="nofill"></path>
        <line x1="402" y1="476" x2="400" y2="480" class="solid"></line>
        <line x1="408" y1="472" x2="416" y2="472" class="solid"></line>
        <path d="M 416,472 A 8,8 0,0,1 422,476" class="nofill"></path>
        <line x1="422" y1="476" x2="424" y2="480" class="solid"></line>
        <path d="M 400,480 A 16,16 0,0,0 400,496" class="nofill"></path>
        <path d="M 424,480 A 16,16 0,0,1 424,496" class="nofill"></path>
        <line x1="400" y1="496" x2="402" y2="500" class="solid"></line>
        <path d="M 402,500 A 8,8 0,0,0 408,504" class="nofill"></path>
        <line x1="408" y1="504" x2="416" y2="504" class="solid"></line>
        <line x1="424" y1="496" x2="422" y2="500" class="solid"></line>
        <path d="M 422,500 A 8,8 0,0,1 416,504" class="nofill"></path>
    </g>
    <g>
        <path d="M 312,472 A 8,8 0,0,0 306,476" class="nofill"></path>
        <line x1="306" y1="476" x2="304" y2="480" class="solid"></line>
        <line x1="312" y1="472" x2="320" y2="472" class="solid"></line>
        <path d="M 320,472 A 8,8 0,0,1 326,476" class="nofill"></path>
        <line x1="326" y1="476" x2="328" y2="480" class="solid"></line>
        <path d="M 304,480 A 16,16 0,0,0 304,496" class="nofill"></path>
        <path d="M 328,480 A 16,16 0,0,1 328,496" class="nofill"></path>
        <line x1="304" y1="496" x2="306" y2="500" class="solid"></line>
        <path d="M 306,500 A 8,8 0,0,0 312,504" class="nofill"></path>
        <line x1="312" y1="504" x2="320" y2="504" class="solid"></line>
        <line x1="328" y1="496" x2="326" y2="500" class="solid"></line>
        <path d="M 326,500 A 8,8 0,0,1 320,504" class="nofill"></path>
    </g>
    <g>
        <path d="M 600,472 A 8,8 0,0,0 594,476" class="nofill"></path>
        <line x1="594" y1="476" x2="592" y2="480" class="solid"></line>
        <line x1="600" y1="472" x2="608" y2="472" class="solid"></line>
        <path d="M 608,472 A 8,8 0,0,1 614,476" class="nofill"></path>
        <line x1="614" y1="476" x2="616" y2="480" class="solid"></line>
        <path d="M 592,480 A 16,16 0,0,0 592,496" class="nofill"></path>
        <path d="M 616,480 A 16,16 0,0,1 616,496" class="nofill"></path>
        <line x1="592" y1="496" x2="594" y2="500" class="solid"></line>
        <path d="M 594,500 A 8,8 0,0,0 600,504" class="nofill"></path>
        <line x1="600" y1="504" x2="608" y2="504" class="solid"></line>
        <line x1="616" y1="496" x2="614" y2="500" class="solid"></line>
        <path d="M 614,500 A 8,8 0,0,1 608,504" class="nofill"></path>
    </g>
    <g>
        <text x="306" y="492">µ</text>
        <text x="314" y="492">S</text>
    </g>
    <g>
        <line x1="336" y1="488" x2="384" y2="488" class="solid"></line>
        <polygon points="384,484 392,488 384,492" class="filled"></polygon>
    </g>
    <g>
        <text x="402" y="492">µ</text>
        <text x="410" y="492">S</text>
    </g>
    <g>
        <line x1="432" y1="488" x2="576" y2="488" class="solid"></line>
        <polygon points="576,484 584,488 576,492" class="filled"></polygon>
    </g>
    <g>
        <text x="594" y="492">µ</text>
        <text x="602" y="492">S</text>
    </g>
    <g>
        <polygon points="632,484 624,488 632,492" class="filled"></polygon>
        <line x1="632" y1="488" x2="824" y2="488" class="solid"></line>
        <polygon points="824,484 832,488 824,492" class="filled"></polygon>
    </g>
    <g>
        <polygon points="391,508 398,500 398,511" class="filled"></polygon>
        <line x1="394" y1="508" x2="384" y2="528" class="solid"></line>
        <line x1="352" y1="528" x2="384" y2="528" class="solid"></line>
        <path d="M 328,536 A 8,8 0,0,0 322,540" class="nofill"></path>
        <line x1="322" y1="540" x2="320" y2="544" class="solid"></line>
        <line x1="328" y1="536" x2="336" y2="536" class="solid"></line>
        <path d="M 336,536 A 8,8 0,0,1 342,540" class="nofill"></path>
        <line x1="342" y1="540" x2="344" y2="544" class="solid"></line>
        <line x1="352" y1="528" x2="344" y2="544" class="solid"></line>
        <path d="M 320,544 A 16,16 0,0,0 320,560" class="nofill"></path>
        <path d="M 344,544 A 16,16 0,0,1 344,560" class="nofill"></path>
        <line x1="320" y1="560" x2="322" y2="564" class="solid"></line>
        <path d="M 322,564 A 8,8 0,0,0 328,568" class="nofill"></path>
        <line x1="328" y1="568" x2="336" y2="568" class="solid"></line>
        <line x1="344" y1="560" x2="342" y2="564" class="solid"></line>
        <path d="M 342,564 A 8,8 0,0,1 336,568" class="nofill"></path>
    </g>
    <g>
        <line x1="708" y1="496" x2="708" y2="548" class="solid"></line>
        <line x1="624" y1="552" x2="704" y2="552" class="solid"></line>
        <path d="M 708,548 A 4,4 0,0,1 704,552" class="nofill"></path>
    </g>
    <g>
        <path d="M 264,536 A 8,8 0,0,0 258,540" class="nofill"></path>
        <line x1="258" y1="540" x2="256" y2="544" class="solid"></line>
        <line x1="264" y1="536" x2="272" y2="536" class="solid"></line>
        <path d="M 272,536 A 8,8 0,0,1 278,540" class="nofill"></path>
        <line x1="278" y1="540" x2="280" y2="544" class="solid"></line>
        <path d="M 256,544 A 16,16 0,0,0 256,560" class="nofill"></path>
        <path d="M 280,544 A 16,16 0,0,1 280,560" class="nofill"></path>
        <line x1="256" y1="560" x2="258" y2="564" class="solid"></line>
        <path d="M 258,564 A 8,8 0,0,0 264,568" class="nofill"></path>
        <line x1="264" y1="568" x2="272" y2="568" class="solid"></line>
        <line x1="280" y1="560" x2="278" y2="564" class="solid"></line>
        <path d="M 278,564 A 8,8 0,0,1 272,568" class="nofill"></path>
    </g>
    <g>
        <path d="M 600,536 A 8,8 0,0,0 594,540" class="nofill"></path>
        <line x1="594" y1="540" x2="592" y2="544" class="solid"></line>
        <line x1="600" y1="536" x2="608" y2="536" class="solid"></line>
        <path d="M 608,536 A 8,8 0,0,1 614,540" class="nofill"></path>
        <line x1="614" y1="540" x2="616" y2="544" class="solid"></line>
        <path d="M 592,544 A 16,16 0,0,0 592,560" class="nofill"></path>
        <path d="M 616,544 A 16,16 0,0,1 616,560" class="nofill"></path>
        <line x1="592" y1="560" x2="594" y2="564" class="solid"></line>
        <path d="M 594,564 A 8,8 0,0,0 600,568" class="nofill"></path>
        <line x1="600" y1="568" x2="608" y2="568" class="solid"></line>
        <line x1="616" y1="560" x2="614" y2="564" class="solid"></line>
        <path d="M 614,564 A 8,8 0,0,1 608,568" class="nofill"></path>
    </g>
    <g>
        <text x="258" y="556">µ</text>
        <text x="266" y="556">S</text>
    </g>
    <g>
        <line x1="288" y1="552" x2="304" y2="552" class="solid"></line>
        <polygon points="304,548 312,552 304,556" class="filled"></polygon>
    </g>
    <g>
        <text x="322" y="556">µ</text>
        <text x="330" y="556">S</text>
    </g>
    <g>
        <line x1="352" y1="552" x2="576" y2="552" class="solid"></line>
        <polygon points="576,548 584,552 576,556" class="filled"></polygon>
    </g>
    <g>
        <text x="594" y="556">µ</text>
        <text x="602" y="556">S</text>
    </g>
    <g>
        <line x1="500" y1="560" x2="500" y2="596" class="solid"></line>
        <line x1="332" y1="576" x2="332" y2="596" class="solid"></line>
        <path d="M 332,596 A 4,4 0,0,0 336,600" class="nofill"></path>
        <line x1="336" y1="600" x2="496" y2="600" class="solid"></line>
        <path d="M 500,596 A 4,4 0,0,1 496,600" class="nofill"></path>
    </g>
</svg>
