<svg xmlns="http://www.w3.org/2000/svg" width="696" height="576">
    <style>
        line, path, circle,rect,polygon{stroke:black;stroke-width:2;stroke-opacity:1;fill-opacity:1;stroke-linecap:round;stroke-linejoin:miter;}text{font-family:monospace;font-size:14px;}rect.backdrop{stroke:none;fill:white;}.broken{stroke-dasharray:8;}.filled{fill:black;}.bg_filled{fill:white;}.nofill{fill:white;}.end_marked_arrow{marker-end:url(#arrow);}.start_marked_arrow{marker-start:url(#arrow);}.end_marked_diamond{marker-end:url(#diamond);}.start_marked_diamond{marker-start:url(#diamond);}.end_marked_circle{marker-end:url(#circle);}.start_marked_circle{marker-start:url(#circle);}.end_marked_open_circle{marker-end:url(#open_circle);}.start_marked_open_circle{marker-start:url(#open_circle);}.end_marked_big_open_circle{marker-end:url(#big_open_circle);}.start_marked_big_open_circle{marker-start:url(#big_open_circle);}
        
    </style>
    <defs>
        <marker id="arrow" viewBox="-2 -2 8 8" refX="4" refY="2" markerWidth="7" markerHeight="7" orient="auto-start-reverse">
            <polygon points="0,0 0,4 4,2 0,0"></polygon>
        </marker>
        <marker id="diamond" viewBox="-2 -2 8 8" refX="4" refY="2" markerWidth="7" markerHeight="7" orient="auto-start-reverse">
            <polygon points="0,2 2,0 4,2 2,4 0,2"></polygon>
        </marker>
        <marker id="circle" viewBox="0 0 8 8" refX="4" refY="4" markerWidth="7" markerHeight="7" orient="auto-start-reverse">
            <circle cx="4" cy="4" r="2" class="filled"></circle>
        </marker>
        <marker id="open_circle" viewBox="0 0 8 8" refX="4" refY="4" markerWidth="7" markerHeight="7" orient="auto-start-reverse">
            <circle cx="4" cy="4" r="2" class="bg_filled"></circle>
        </marker>
        <marker id="big_open_circle" viewBox="0 0 8 8" refX="4" refY="4" markerWidth="7" markerHeight="7" orient="auto-start-reverse">
            <circle cx="4" cy="4" r="3" class="bg_filled"></circle>
        </marker>
    </defs>
    <rect class="backdrop" x="0" y="0" width="696" height="576"></rect>
    <rect x="316" y="232" width="72" height="96" class="solid nofill" rx="0"></rect>
    <text x="322" y="252" >mono</text>
    <text x="322" y="268" >service</text>
    <rect x="580" y="264" width="48" height="32" class="solid nofill" rx="0"></rect>
    <text x="594" y="284" >S3</text>
    <rect x="580" y="472" width="48" height="32" class="solid nofill" rx="0"></rect>
    <text x="594" y="492" >S3</text>
    <text x="322" y="76" >mono</text>
    <text x="322" y="92" >service</text>
    <text x="594" y="108" >DB</text>
    <line x1="500" y1="112" x2="500" y2="272" class="solid"></line>
    <text x="2" y="188" >...............................</text>
    <text x="258" y="188" >...........</text>
    <text x="354" y="188" >..................</text>
    <text x="506" y="188" >.......................</text>
    <line x1="500" y1="288" x2="500" y2="416" class="solid"></line>
    <text x="2" y="364" >..............................</text>
    <text x="250" y="364" >............</text>
    <text x="354" y="364" >..................</text>
    <text x="506" y="364" >.......................</text>
    <text x="322" y="428" >mono</text>
    <text x="594" y="428" >DB</text>
    <text x="322" y="444" >service</text>
    <line x1="500" y1="432" x2="500" y2="480" class="solid"></line>
    <text x="642" y="108" >TEAM</text>
    <text x="682" y="108" >A</text>
    <text x="122" y="284" >internet</text>
    <text x="642" y="284" >TEAM</text>
    <text x="682" y="284" >B</text>
    <text x="642" y="460" >TEAM</text>
    <text x="682" y="460" >C</text>
    <g>
        <path d="M 352,8 A 4,4 0,0,0 348,12" class="nofill"></path>
        <line x1="348" y1="12" x2="348" y2="36" class="solid"></line>
        <line x1="352" y1="8" x2="496" y2="8" class="solid"></line>
        <path d="M 496,8 A 4,4 0,0,1 500,12" class="nofill"></path>
        <line x1="500" y1="12" x2="500" y2="96" class="solid"></line>
        <polygon points="344,36 352,36 348,48" class="filled"></polygon>
    </g>
    <g>
        <line x1="316" y1="56" x2="388" y2="56" class="solid"></line>
        <line x1="316" y1="56" x2="316" y2="152" class="solid"></line>
        <line x1="388" y1="56" x2="388" y2="152" class="solid"></line>
        <line x1="388" y1="104" x2="568" y2="104" class="solid"></line>
        <polygon points="568,100 576,104 568,108" class="filled"></polygon>
        <line x1="316" y1="152" x2="388" y2="152" class="solid"></line>
    </g>
    <g>
        <path d="M 592,88 A 8,8 0,0,0 586,92" class="nofill"></path>
        <line x1="586" y1="92" x2="584" y2="96" class="solid"></line>
        <line x1="592" y1="88" x2="616" y2="88" class="solid"></line>
        <path d="M 616,88 A 8,8 0,0,1 622,92" class="nofill"></path>
        <line x1="622" y1="92" x2="624" y2="96" class="solid"></line>
        <path d="M 584,96 A 16,16 0,0,0 584,112" class="nofill"></path>
        <path d="M 624,96 A 16,16 0,0,1 624,112" class="nofill"></path>
        <line x1="584" y1="112" x2="586" y2="116" class="solid"></line>
        <path d="M 586,116 A 8,8 0,0,0 592,120" class="nofill"></path>
        <line x1="592" y1="120" x2="616" y2="120" class="solid"></line>
        <line x1="624" y1="112" x2="622" y2="116" class="solid"></line>
        <path d="M 622,116 A 8,8 0,0,1 616,120" class="nofill"></path>
    </g>
    <g>
        <path d="M 296,104 A 8,8 0,0,0 290,108" class="nofill"></path>
        <line x1="290" y1="108" x2="224" y2="240" class="solid"></line>
        <line x1="296" y1="104" x2="304" y2="104" class="solid"></line>
        <polygon points="304,100 312,104 304,108" class="filled"></polygon>
        <line x1="224" y1="240" x2="216" y2="256" class="solid"></line>
    </g>
    <g>
        <polygon points="344,172 348,160 352,172" class="filled"></polygon>
        <line x1="348" y1="172" x2="348" y2="212" class="solid"></line>
        <polygon points="344,212 352,212 348,224" class="filled"></polygon>
    </g>
    <g>
        <path d="M 152,232 A 8,8 0,0,0 146,236" class="nofill"></path>
        <line x1="146" y1="236" x2="144" y2="240" class="solid"></line>
        <line x1="152" y1="232" x2="160" y2="232" class="solid"></line>
        <path d="M 160,232 A 8,8 0,0,1 166,236" class="nofill"></path>
        <line x1="166" y1="236" x2="168" y2="240" class="solid"></line>
        <path d="M 144,240 A 16,16 0,0,0 144,256" class="nofill"></path>
        <path d="M 168,240 A 16,16 0,0,1 168,256" class="nofill"></path>
    </g>
    <g>
        <path d="M 120,248 A 8,8 0,0,0 114,252" class="nofill"></path>
        <line x1="114" y1="252" x2="112" y2="256" class="solid"></line>
        <line x1="120" y1="248" x2="136" y2="248" class="solid"></line>
        <path d="M 112,256 A 16,16 0,0,0 112,272" class="nofill"></path>
    </g>
    <g>
        <line x1="176" y1="248" x2="192" y2="248" class="solid"></line>
        <path d="M 192,248 A 8,8 0,0,1 198,252" class="nofill"></path>
        <line x1="198" y1="252" x2="200" y2="256" class="solid"></line>
        <path d="M 200,256 A 16,16 0,0,1 200,272" class="nofill"></path>
    </g>
    <g>
        <path d="M 96,264 A 8,8 0,0,0 90,268" class="nofill"></path>
        <line x1="90" y1="268" x2="88" y2="272" class="solid"></line>
        <line x1="96" y1="264" x2="104" y2="264" class="solid"></line>
        <path d="M 88,272 A 16,16 0,0,0 88,288" class="nofill"></path>
        <line x1="88" y1="288" x2="90" y2="292" class="solid"></line>
        <path d="M 90,292 A 8,8 0,0,0 96,296" class="nofill"></path>
        <line x1="96" y1="296" x2="104" y2="296" class="solid"></line>
    </g>
    <g>
        <line x1="208" y1="264" x2="216" y2="264" class="solid"></line>
        <path d="M 216,264 A 8,8 0,0,1 222,268" class="nofill"></path>
        <line x1="222" y1="268" x2="224" y2="272" class="solid"></line>
        <path d="M 224,272 A 16,16 0,0,1 224,288" class="nofill"></path>
        <line x1="224" y1="288" x2="222" y2="292" class="solid"></line>
        <line x1="208" y1="296" x2="216" y2="296" class="solid"></line>
        <path d="M 222,292 A 8,8 0,0,1 216,296" class="nofill"></path>
    </g>
    <g>
        <line x1="232" y1="280" x2="304" y2="280" class="solid"></line>
        <polygon points="304,276 312,280 304,284" class="filled"></polygon>
    </g>
    <g>
        <polygon points="400,276 392,280 400,284" class="filled"></polygon>
        <line x1="400" y1="280" x2="568" y2="280" class="solid"></line>
        <polygon points="568,276 576,280 568,284" class="filled"></polygon>
    </g>
    <g>
        <path d="M 112,288 A 16,16 0,0,0 112,304" class="nofill"></path>
        <line x1="112" y1="304" x2="114" y2="308" class="solid"></line>
        <path d="M 114,308 A 8,8 0,0,0 120,312" class="nofill"></path>
        <line x1="120" y1="312" x2="136" y2="312" class="solid"></line>
    </g>
    <g>
        <path d="M 200,288 A 16,16 0,0,1 200,304" class="nofill"></path>
        <line x1="200" y1="304" x2="198" y2="308" class="solid"></line>
        <line x1="176" y1="312" x2="192" y2="312" class="solid"></line>
        <path d="M 198,308 A 8,8 0,0,1 192,312" class="nofill"></path>
    </g>
    <g>
        <path d="M 144,304 A 16,16 0,0,0 144,320" class="nofill"></path>
        <line x1="144" y1="320" x2="146" y2="324" class="solid"></line>
        <path d="M 146,324 A 8,8 0,0,0 152,328" class="nofill"></path>
        <line x1="152" y1="328" x2="160" y2="328" class="solid"></line>
        <path d="M 168,304 A 16,16 0,0,1 168,320" class="nofill"></path>
        <line x1="168" y1="320" x2="166" y2="324" class="solid"></line>
        <path d="M 166,324 A 8,8 0,0,1 160,328" class="nofill"></path>
    </g>
    <g>
        <line x1="216" y1="304" x2="280" y2="432" class="solid"></line>
        <line x1="280" y1="432" x2="290" y2="452" class="solid"></line>
        <path d="M 290,452 A 8,8 0,0,0 296,456" class="nofill"></path>
        <line x1="296" y1="456" x2="304" y2="456" class="solid"></line>
        <polygon points="304,452 312,456 304,460" class="filled"></polygon>
    </g>
    <g>
        <polygon points="344,348 348,336 352,348" class="filled"></polygon>
        <line x1="348" y1="348" x2="348" y2="388" class="solid"></line>
        <polygon points="344,388 352,388 348,400" class="filled"></polygon>
    </g>
    <g>
        <line x1="316" y1="408" x2="388" y2="408" class="solid"></line>
        <line x1="316" y1="408" x2="316" y2="504" class="solid"></line>
        <line x1="388" y1="408" x2="388" y2="504" class="solid"></line>
        <line x1="388" y1="424" x2="568" y2="424" class="solid"></line>
        <polygon points="568,420 576,424 568,428" class="filled"></polygon>
        <line x1="316" y1="504" x2="388" y2="504" class="solid"></line>
    </g>
    <g>
        <path d="M 592,408 A 8,8 0,0,0 586,412" class="nofill"></path>
        <line x1="586" y1="412" x2="584" y2="416" class="solid"></line>
        <line x1="592" y1="408" x2="616" y2="408" class="solid"></line>
        <path d="M 616,408 A 8,8 0,0,1 622,412" class="nofill"></path>
        <line x1="622" y1="412" x2="624" y2="416" class="solid"></line>
        <path d="M 584,416 A 16,16 0,0,0 584,432" class="nofill"></path>
        <path d="M 624,416 A 16,16 0,0,1 624,432" class="nofill"></path>
        <line x1="584" y1="432" x2="586" y2="436" class="solid"></line>
        <path d="M 586,436 A 8,8 0,0,0 592,440" class="nofill"></path>
        <line x1="592" y1="440" x2="616" y2="440" class="solid"></line>
        <line x1="624" y1="432" x2="622" y2="436" class="solid"></line>
        <path d="M 622,436 A 8,8 0,0,1 616,440" class="nofill"></path>
    </g>
    <g>
        <polygon points="400,484 392,488 400,492" class="filled"></polygon>
        <line x1="400" y1="488" x2="568" y2="488" class="solid"></line>
        <polygon points="568,484 576,488 568,492" class="filled"></polygon>
    </g>
    <g>
        <line x1="500" y1="496" x2="500" y2="548" class="solid"></line>
        <polygon points="344,524 348,512 352,524" class="filled"></polygon>
        <line x1="348" y1="524" x2="348" y2="548" class="solid"></line>
        <path d="M 348,548 A 4,4 0,0,0 352,552" class="nofill"></path>
        <line x1="352" y1="552" x2="496" y2="552" class="solid"></line>
        <path d="M 500,548 A 4,4 0,0,1 496,552" class="nofill"></path>
    </g>
</svg>
